<svg xmlns="http://www.w3.org/2000/svg" width="210" height="210" viewBox="0 0 210 210">
<path d="M42.0761719,66.4443359 L42.0761719,84.53125 C42.0761719,84.53125 41.6409988,94.1244271 42.0761719,97.940918 C44.3844884,118.184974 50.3066406,156.712891 50.3066406,156.712891 L126.757812,156.712891 C126.757812,156.712891 133.254904,124.474935 135.475588,108.786621 C136.522401,101.391276 136.121096,83.8227539 136.121096,83.8227539 L136.121096,66.4443359 L42.0761719,66.4443359 Z" fill="#FFF7F5"></path>
<path d="M99.482,82.839 L79.475,82.839 C75.095,80.622 68.824,80.091 63.442,80.091 C54.049,80.091 46.432,87.707 46.432,97.101 C46.432,106.493 54.049,114.109 63.442,114.109 C71.467,114.109 81.472,104.172 84.222,95.419 C84.222,95.419 88.775,92.429 94.736,95.419 C97.472,104.16 107.487,114.109 115.513,114.109 C124.91,114.109 132.524,106.493 132.524,97.101 C132.524,87.707 124.91,80.091 115.513,80.091 C110.135,80.091 103.861,80.622 99.482,82.839 Z M84.955,91.09 C84.955,87.552 82.1167734,84.521084 79.4677734,82.861084 L99.4760742,82.861084 C96.8280742,84.521084 94.004,87.552 94.004,91.09 L84.955,91.09 Z" fill="#313130"></path>
<path d="M172.161,113.913 C172.161,113.913 136.613,83.295 136.069,83.55 C136.106,91.776 135.658,99.417 134.752,105.389 C130.135,135.853 113.634,153.322 89.48,153.322 C66.258,153.322 51.033,137.241 44.233,105.523 C42.989,99.718 42.279,92.186 42.162,83.972 L7.838,113.913 L43.088,132.921 C43.088,132.921 8.839,135.677 3.326,157.187 L3.326,181.451 C3.326,181.451 12.689,209.615 90,209.615 C167.311,209.615 176.674,181.451 176.674,181.451 L176.674,157.187 C171.16,135.677 136.911,132.921 136.911,132.921 L172.161,113.913 Z" fill="#313130"></path>
<path d="M133.267,50.422 C125.718,35.178 109.165,0.667 105.849,0.667 C101.972,0.667 90.631,6.196 90.631,6.196 C90.631,6.196 81.875977,0.67 77.413,0.67 C66.4895834,0.669999999 48.229,36.085 41.355,50.435 C24.004,51.426 7.033,53.17 1.156,56.248 C-4.028,58.967 70.145,79.514 87.431,79.514 C105.041,79.514 178.889,58.967 173.705,56.248 C167.8,53.158 150.703,51.409 133.267,50.422 Z" fill="#313130"></path>
</svg>
