<svg xmlns="http://www.w3.org/2000/svg" width="33" height="64" viewBox="0 0 33 64">
<g stroke="none" stroke-width="1" fill="none" fill-rule="evenodd">
<path d="M7.024,52.608 C4.984,54.648 4.644,55.26 4.644,57.028 C4.644,57.3 4.644,57.3 4.78,59.544 C4.848,60.768 4.984,61.108 5.46,61.652 C6.616,62.876 9.336,63.488 14.028,63.488 C18.584,63.488 22.188,62.944 24.908,61.856 C26.812,61.108 27.152,60.496 27.152,58.456 C27.152,54.784 26.88,53.832 25.384,52.404 C25.996,50.84 26.268,50.296 27.492,48.324 C30.892,42.68 31.708,40.64 31.708,37.852 C31.708,36.9 31.708,36.288 31.572,34.656 C32.048,33.092 32.252,32.072 32.252,31.324 C32.252,29.284 30.824,27.516 29.192,27.516 C28.92,27.516 28.648,27.516 28.308,27.584 C28.512,26.904 28.58,26.564 28.58,26.156 C28.58,23.844 26.54,21.872 24.16,21.872 C23.684,21.872 23.208,22.008 22.324,22.348 C22.188,19.968 20.488,18.336 18.176,18.336 C16.952,18.336 16.34,18.54 15.048,19.356 L15.048,11.74 C15.048,5.96 14.776,3.716 13.756,2.152 C13.076,1.132 12.26,0.656 11.172,0.656 C9.88,0.656 8.588,1.472 8.112,2.628 C7.568,3.988 7.228,6.028 6.956,9.836 C6.412,19.22 6.412,19.22 5.664,23.776 C3.148,25.884 2.06,27.38 1.584,29.42 C1.312,30.916 1.04,32.004 0.836,32.684 C0.224,35.404 0.156,35.608 0.156,37.036 C0.156,38.872 0.564,40.912 1.244,42.544 C2.06,44.652 4.304,48.392 5.664,50.024 C6.752,51.248 6.956,51.588 7.024,52.608 L7.024,52.608 Z M13.144,20.172 C11.58,20.24 10.424,20.648 8.724,21.804 C8.52,21.94 8.18,22.144 7.772,22.348 C7.84,21.532 8.112,18.744 8.52,13.984 C8.996,7.932 9.268,4.94 9.268,4.872 C9.608,3.376 10.288,2.56 11.24,2.56 C11.784,2.56 12.464,3.308 12.668,4.056 C13.008,5.212 13.144,8.544 13.144,17.316 L13.144,20.172 Z M8.928,53.288 C8.996,53.016 9.064,52.812 9.064,52.676 C9.064,51.656 8.588,50.704 7.364,49.14 C5.936,47.236 3.964,43.972 3.08,42.068 C2.4,40.436 1.992,38.736 1.992,37.172 C1.992,36.22 2.4,33.976 3.012,31.664 C4.032,27.924 4.576,27.04 7.296,25.068 C9.472,23.504 12.056,22.076 12.872,22.076 C13.62,22.076 14.164,22.892 14.164,24.116 C14.164,25.952 13.212,27.516 11.376,28.808 C10.628,29.352 10.628,29.352 10.152,30.576 C9.608,32.14 9.608,32.14 9.404,32.888 C11.036,34.18 12.328,35.676 13.756,37.92 C14.98,39.756 15.388,41.456 15.388,44.312 L15.388,44.652 C15.184,46.692 15.184,46.692 15.184,46.76 C15.184,47.304 15.456,47.644 15.932,47.644 C16.68,47.644 17.224,46.42 17.224,44.788 C17.224,43.632 16.816,40.708 16.544,39.756 C16.272,38.872 16.068,38.532 14.504,35.54 C15.116,35.404 15.32,35.336 15.796,35.064 C16.068,37.24 17.292,38.532 19.128,38.532 C19.4,38.532 19.672,38.464 20.284,38.328 C20.284,40.368 21.78,41.728 23.956,41.728 C25.792,41.728 27.696,40.368 30.008,37.444 C29.804,39.892 29.056,42 27.356,44.788 C25.996,47.168 25.18,48.596 24.908,49.072 C23.888,51.248 23.888,51.248 23.208,52.404 C21.916,53.288 21.236,53.56 19.536,53.832 C18.516,54.036 17.02,54.172 16.272,54.172 C15.796,54.172 12.532,54.036 11.988,54.036 C10.424,53.9 10.152,53.832 8.928,53.288 L8.928,53.288 Z M15.456,21.532 C15.388,21.396 16.544,20.58 17.088,20.444 C17.36,20.308 17.904,20.172 18.176,20.172 C19.468,20.172 20.624,21.396 20.624,22.756 C20.624,23.3 19.876,25.748 19.264,27.04 C19.196,27.312 17.496,30.372 17.088,30.984 C16,32.888 14.912,33.772 13.756,33.772 C12.804,33.772 11.648,32.548 11.648,31.596 C11.648,31.12 11.852,30.848 12.736,30.168 C14.912,28.604 16,26.496 16,23.912 C16,23.096 15.864,22.552 15.456,21.532 L15.456,21.532 Z M19.468,36.764 C18.516,36.764 17.564,35.744 17.564,34.724 C17.564,33.976 17.632,33.704 18.788,31.8 C19.264,30.916 21.1,27.38 21.916,25.544 C22.256,24.66 23.48,23.844 24.296,23.844 C25.452,23.844 26.54,24.932 26.54,26.088 C26.54,27.176 25.86,28.876 24.228,31.596 C22.12,35.336 20.828,36.764 19.468,36.764 L19.468,36.764 Z M23.684,39.824 C22.936,39.824 22.256,39.008 22.256,38.124 C22.256,37.716 22.392,37.444 22.936,36.9 C23.616,36.288 24.364,35.2 25.248,33.772 C26.948,30.916 26.948,30.916 27.356,30.44 C27.968,29.692 28.444,29.352 28.92,29.352 C29.804,29.352 30.484,30.304 30.484,31.596 C30.484,33.228 29.668,34.86 27.764,37.104 C26.336,38.804 24.772,39.824 23.684,39.824 L23.684,39.824 Z M15.048,56.076 C18.04,56.076 20.964,55.668 22.596,54.92 C23.752,54.444 24.092,54.308 24.296,54.308 C24.908,54.308 25.112,55.124 25.112,58.32 C25.112,59.544 24.908,59.816 23.752,60.292 C21.236,61.312 18.38,61.72 14.436,61.72 C11.308,61.72 8.724,61.448 7.636,61.04 C6.82,60.7 6.616,60.224 6.616,58.796 L6.616,58.456 L6.616,57.436 C6.548,57.028 6.548,56.824 6.548,56.552 C6.548,55.736 7.024,54.988 7.432,54.988 L15.048,56.076 Z" fill="#FFF7F5"></path>
</g>
</svg>
